<?xml version="1.0" encoding="utf-8"?>
<!-- Generator: Adobe Illustrator 17.0.0, SVG Export Plug-In . SVG Version: 6.00 Build 0)  -->
<!DOCTYPE svg PUBLIC "-//W3C//DTD SVG 1.1//EN" "http://www.w3.org/Graphics/SVG/1.1/DTD/svg11.dtd">
<svg version="1.1" id="Ebene_1_Kopie" xmlns="http://www.w3.org/2000/svg" xmlns:xlink="http://www.w3.org/1999/xlink" x="0px"
	 y="0px" width="532.396px" height="532.396px" viewBox="65.302 65.302 532.396 532.396"
	 enable-background="new 65.302 65.302 532.396 532.396" xml:space="preserve">
<path fill="#1D1D1B" d="M476.054,215.112c-10.814-10.815-23.562-19.174-35.893-23.538c-0.082-0.029-0.194-0.073-0.34-0.129
	c-10.886-4.202-30.691-6.516-55.766-6.516c-2.268,0-182.685-0.008-182.685-0.008l44.924,167.64
	c-13.984,2.665-26.618,9.382-36.654,19.508c-13.149,13.264-20.391,30.854-20.391,49.525c0,18.744,7.286,36.377,20.517,49.647
	c7.699,7.729,13.62,11.729,24.368,16.464c14.702,6.475,23.563,8.742,65.225,8.742c27.975,0,41.434-2.763,50.909-5.466
	c19.46-5.549,35.388-15.89,48.693-31.611c16.128-19.059,21.336-41.386,16.316-70.128c23.056-2.662,44.632-13.111,60.96-29.571
	c19.164-19.326,29.717-44.962,29.717-72.187C505.955,260.095,495.336,234.393,476.054,215.112z M275.54,466.536
	c-9.46,0-13.572-0.696-19.327-2.374c-7.86-2.293-18.961-8.141-26.025-15.695c-6.408-6.853-10.029-16.346-10.029-26.865
	c0-19.557,14.834-36.409,34.064-39.079c7.707,28.837,13.564,52.652,17.463,68.511C273.318,457.67,274.587,462.831,275.54,466.536z
	 M375.493,438.29c-6.725,8.765-14.045,14.628-23.734,19.008c-16.425,7.422-29.022,9.109-43.665,9.212l-66.449-250.67h97.114
	l41.354,154.341C390.32,409.676,386.756,423.611,375.493,438.29z M475.049,287.487c0,37.375-28.82,68.436-65.903,71.403
	L370.61,215.632l10.015,0.003c28.363,0,49.21,2.409,65.477,14.399C463.957,243.195,475.049,265.209,475.049,287.487z"/>
<path fill="#1D1D1B" d="M519.73,143.27C469.453,92.991,402.605,65.302,331.5,65.302c-71.104,0-137.952,27.689-188.23,77.968
	S65.302,260.396,65.302,331.5c0,71.105,27.689,137.953,77.968,188.23c50.279,50.278,117.127,77.968,188.23,77.968
	s137.952-27.689,188.23-77.968s77.968-117.127,77.968-188.23S570.009,193.548,519.73,143.27z M331.5,566.802
	c-62.852,0-121.941-24.476-166.384-68.918C120.674,453.44,96.198,394.352,96.198,331.5c0-62.851,24.476-121.94,68.918-166.384
	C209.56,120.674,268.649,96.198,331.5,96.198c62.852,0,121.94,24.476,166.384,68.918c44.442,44.442,68.918,103.532,68.918,166.384
	s-24.476,121.941-68.918,166.384S394.352,566.802,331.5,566.802z"/>
</svg>
